<?xml version="1.0" standalone="no"?>
<!DOCTYPE svg PUBLIC "-//W3C//DTD SVG 20010904//EN"
 "http://www.w3.org/TR/2001/REC-SVG-20010904/DTD/svg10.dtd">
<svg version="1.0" xmlns="http://www.w3.org/2000/svg"
 width="512.000000pt" height="512.000000pt" viewBox="0 0 512.000000 512.000000"
 preserveAspectRatio="xMidYMid meet">
<metadata>
Created by potrace 1.14, written by Peter Selinger 2001-2017
</metadata>
<g transform="translate(0.000000,512.000000) scale(0.100000,-0.100000)"
fill="#000000" stroke="none">
<path d="M1458 3952 c-14 -20 -93 -114 -118 -141 -58 -62 -59 -55 19 -105 39
-25 75 -46 80 -46 5 0 11 -4 13 -8 3 -7 237 -149 509 -307 57 -33 123 -71 146
-85 23 -14 142 -83 264 -155 122 -71 240 -141 263 -155 23 -14 77 -45 120 -70
120 -69 248 -156 280 -189 16 -16 30 -42 32 -58 6 -64 27 -143 38 -143 6 0 19
7 30 15 17 13 18 26 14 167 -4 125 -9 165 -27 218 -33 94 -101 198 -178 271
-84 79 -331 235 -673 426 -216 121 -761 383 -796 383 -1 0 -9 -8 -16 -18z"/>
<path d="M3418 3947 c-34 -35 -154 -171 -161 -183 -8 -14 65 -66 218 -158 44
-26 87 -51 95 -57 39 -24 357 -210 650 -382 495 -289 602 -354 697 -426 l88
-67 6 -56 c4 -41 15 -68 37 -98 16 -23 33 -37 36 -31 4 6 6 79 5 163 -2 236
-42 357 -158 477 -138 142 -849 557 -1276 744 -44 19 -106 46 -137 61 -64 30
-81 32 -100 13z"/>
<path d="M551 3819 c-10 -4 -21 -19 -25 -34 -7 -27 -110 -184 -174 -265 -56
-71 -202 -211 -265 -254 l-57 -39 0 -263 0 -263 44 20 c93 41 240 120 280 151
54 42 81 71 150 163 14 18 15 -80 16 -922 l0 -943 28 -1 c15 0 112 -1 215 -1
164 -1 190 1 205 16 16 15 17 110 18 1294 1 702 -1 1289 -3 1304 -3 16 -14 30
-27 35 -27 9 -380 11 -405 2z"/>
<path d="M1436 3456 c-64 -72 -92 -115 -128 -194 -55 -121 -57 -148 -55 -837
2 -705 -1 -672 77 -828 48 -94 82 -141 169 -228 114 -113 210 -162 391 -199
136 -28 333 -22 484 16 216 53 429 248 515 473 45 119 52 194 53 606 1 313 -1
378 -13 390 -13 12 -317 202 -430 268 l-46 27 -1 -553 c0 -595 -1 -608 -53
-683 -54 -80 -209 -146 -322 -138 -115 7 -248 69 -290 134 -54 82 -52 56 -52
755 l0 650 28 57 c15 31 43 74 62 95 34 38 36 53 9 53 -9 0 -89 43 -178 95
-90 52 -165 95 -167 95 -3 0 -26 -24 -53 -54z"/>
<path d="M3397 3456 c-107 -118 -165 -264 -175 -436 -9 -153 -7 -1113 2 -1195
18 -163 109 -332 254 -473 141 -136 349 -204 602 -196 137 4 172 8 268 34 190
52 357 189 465 382 39 70 76 173 82 227 2 20 5 217 6 439 2 386 2 403 -17 417
-22 17 -418 265 -449 281 -20 10 -20 8 -21 -560 -1 -639 2 -607 -74 -690 -60
-64 -142 -98 -256 -104 -138 -7 -235 27 -315 111 -67 70 -64 35 -67 752 -3
735 -6 702 75 794 25 29 42 56 37 60 -20 19 -327 191 -350 197 -20 5 -32 -2
-67 -40z"/>
</g>
</svg>
