<?xml version="1.0" standalone="no"?>
<!DOCTYPE svg PUBLIC "-//W3C//DTD SVG 20010904//EN"
 "http://www.w3.org/TR/2001/REC-SVG-20010904/DTD/svg10.dtd">
<svg version="1.0" xmlns="http://www.w3.org/2000/svg"
 width="512.000000pt" height="512.000000pt" viewBox="0 0 512.000000 512.000000"
 preserveAspectRatio="xMidYMid meet">
<metadata>
Created by potrace 1.14, written by Peter Selinger 2001-2017
</metadata>
<g transform="translate(0.000000,512.000000) scale(0.100000,-0.100000)"
fill="#000000" stroke="none">
<path d="M2423 4990 c-139 -21 -311 -95 -422 -183 -60 -46 -81 -67 -152 -147
-65 -75 -144 -228 -173 -340 -28 -108 -32 -171 -31 -512 0 -181 -2 -329 -5
-329 -3 -1 -129 -2 -280 -4 -151 -1 -291 -5 -310 -9 -51 -9 -169 -71 -213
-110 -81 -74 -137 -191 -152 -321 -3 -27 -8 -57 -10 -65 -2 -8 -6 -37 -10 -65
-3 -27 -8 -59 -10 -70 -3 -11 -7 -40 -10 -65 -2 -25 -6 -54 -9 -65 -2 -11 -7
-42 -10 -70 -4 -27 -9 -57 -11 -65 -2 -8 -7 -37 -10 -64 -3 -26 -12 -89 -20
-140 -7 -50 -16 -109 -20 -131 -15 -106 -33 -220 -39 -255 -3 -14 -7 -45 -10
-70 -3 -25 -8 -56 -10 -70 -3 -14 -10 -61 -16 -105 -6 -44 -13 -91 -15 -105
-23 -152 -55 -364 -60 -397 -3 -23 -8 -55 -10 -70 -6 -46 -16 -107 -21 -133
-3 -14 -7 -69 -10 -123 -15 -371 247 -699 616 -772 64 -12 294 -14 1605 -12
l1530 2 83 28 c262 89 439 271 512 528 24 83 34 247 21 319 -5 25 -12 68 -16
95 -3 28 -13 93 -21 145 -9 52 -17 111 -20 130 -2 19 -6 46 -9 60 -3 14 -7 45
-10 70 -3 25 -10 74 -16 110 -6 36 -12 81 -15 100 -2 19 -9 60 -14 90 -5 30
-12 75 -15 100 -3 25 -10 70 -15 100 -5 30 -12 78 -15 105 -4 28 -8 57 -10 65
-2 8 -7 35 -10 60 -3 25 -12 86 -20 135 -8 50 -16 110 -20 135 -3 25 -10 70
-15 100 -5 30 -12 71 -14 90 -7 53 -55 372 -61 400 -14 72 -20 89 -47 141 -55
105 -170 197 -288 230 -31 8 -133 13 -322 13 -152 1 -280 5 -285 9 -4 5 -8
162 -9 350 -1 188 -4 358 -7 377 -58 369 -306 651 -663 755 -97 28 -280 40
-381 25z m291 -316 c212 -54 389 -237 440 -455 20 -87 24 -734 4 -741 -7 -2
-281 -4 -608 -4 l-595 1 0 360 c0 323 2 366 18 415 40 117 78 182 156 260 156
158 370 218 585 164z m-1073 -1511 c1 -5 2 -116 3 -249 2 -264 5 -280 69 -328
41 -30 132 -29 173 3 60 47 63 61 64 334 l0 247 610 0 610 0 0 -247 c0 -244 0
-247 25 -289 58 -100 200 -96 260 7 18 30 19 53 20 279 l0 245 250 3 c138 2
264 0 282 -3 39 -7 91 -49 105 -84 10 -24 34 -162 42 -241 2 -19 11 -78 20
-130 8 -52 18 -115 22 -140 3 -25 8 -54 10 -65 1 -11 8 -56 14 -100 6 -44 15
-102 20 -130 5 -27 11 -68 14 -90 3 -22 10 -71 16 -110 6 -38 13 -81 15 -95 5
-33 35 -238 40 -270 2 -14 7 -45 10 -70 3 -25 12 -85 20 -135 16 -100 41 -268
50 -330 3 -22 13 -85 21 -140 20 -127 20 -207 0 -275 -43 -148 -151 -260 -297
-311 l-64 -22 -1475 -2 c-811 0 -1500 3 -1530 7 -203 31 -374 221 -382 424 -1
38 9 164 17 194 3 12 16 98 20 135 3 22 10 65 15 95 5 30 17 105 25 165 19
132 24 162 30 195 3 14 7 45 10 70 3 25 7 56 10 70 7 39 14 79 21 129 3 25 7
57 10 70 2 13 6 45 10 70 4 25 8 55 10 66 2 11 22 143 44 294 22 150 42 283
45 295 2 11 6 39 9 61 5 36 12 88 21 140 1 11 8 55 15 99 10 57 20 86 39 108
45 54 62 57 349 58 144 0 263 -3 263 -7z"/>
<path d="M3555 1760 c-121 -61 -295 -134 -350 -147 -5 -1 -50 -14 -100 -28
-165 -47 -323 -68 -520 -69 -156 -1 -317 8 -334 19 -4 1 -28 6 -56 9 -159 21
-399 103 -622 212 -84 41 -155 74 -158 74 -3 0 -5 -67 -5 -148 l0 -149 108
-56 c256 -133 549 -227 782 -252 36 -4 74 -9 85 -11 25 -6 319 -5 360 1 17 2
55 7 85 10 30 4 63 9 75 11 11 2 34 7 50 10 206 37 503 148 712 265 l43 24 0
153 c0 83 -1 151 -2 150 -2 -1 -70 -36 -153 -78z"/>
</g>
</svg>
