<svg width="550" height="125" viewBox="0 0 550 125" fill="none" xmlns="http://www.w3.org/2000/svg">
<path d="M133.622 72.4806L135.555 68.8282V88.7013H133.622V72.4806ZM137.489 65.0685L139.422 61.4161V88.7013H137.489V65.0685ZM141.356 57.7638L143.29 54.0846V88.7013H141.356V57.7638ZM128.385 71.5675L127.284 69.5533L140.604 44.2286H142.779L128.385 71.5675ZM126.156 67.3512L125.028 65.3102L136.2 44.2286H138.402L126.156 67.3512ZM113.211 69.0431L115.145 72.6954V88.7013H113.211V69.0431ZM109.344 61.6847L111.278 65.337V88.7013H109.344V61.6847ZM105.477 54.3263L107.411 58.0055V88.7013H105.477V54.3263ZM121.107 77.0997H118.932L103.544 47.9078V88.7013H101.61V44.2286H103.785L121.107 77.0997ZM125.484 77.0997H123.282L105.987 44.2286H108.189L125.484 77.0997ZM145.223 47.9078L129.835 77.0997H127.633L110.365 44.2286H112.54L128.761 75.0587L144.955 44.2286H147.157V88.7013H145.223V47.9078ZM180.548 69.1505V44.2286H182.481V69.1505C182.481 71.8719 181.407 74.1993 179.259 76.1329C177.11 78.0665 174.532 79.0333 171.524 79.0333C168.517 79.0333 165.938 78.0665 163.79 76.1329C161.642 74.1993 160.567 71.8719 160.567 69.1505V44.2286H162.501V69.1505C162.501 71.3348 163.378 73.2057 165.133 74.7633C166.905 76.3209 169.036 77.0997 171.524 77.0997C174.013 77.0997 176.135 76.3209 177.889 74.7633C179.662 73.2057 180.548 71.3348 180.548 69.1505ZM184.415 69.1505V44.2286H186.349V69.1505C186.349 71.0125 185.955 72.7939 185.167 74.4948C184.379 76.1777 183.323 77.6368 181.998 78.8722C180.673 80.1075 179.098 81.0922 177.271 81.8263C175.445 82.5424 173.53 82.9005 171.524 82.9005C169.519 82.9005 167.603 82.5424 165.777 81.8263C163.951 81.0922 162.376 80.1075 161.051 78.8722C159.726 77.6368 158.67 76.1777 157.882 74.4948C157.094 72.7939 156.7 71.0125 156.7 69.1505V44.2286H158.634V69.1505C158.634 71.281 159.207 73.2594 160.352 75.0856C161.516 76.8938 163.083 78.3261 165.052 79.3824C167.039 80.4388 169.197 80.9669 171.524 80.9669C173.852 80.9669 176 80.4388 177.97 79.3824C179.957 78.3261 181.524 76.8938 182.669 75.0856C183.833 73.2594 184.415 71.281 184.415 69.1505ZM188.282 69.1505V44.2286H190.216V69.1505C190.216 71.5317 189.714 73.8144 188.712 75.9987C187.727 78.165 186.402 80.0359 184.737 81.6115C183.072 83.187 181.085 84.4402 178.775 85.3712C176.466 86.3022 174.049 86.7677 171.524 86.7677C169 86.7677 166.583 86.3022 164.273 85.3712C161.964 84.4402 159.977 83.187 158.311 81.6115C156.646 80.0359 155.313 78.165 154.31 75.9987C153.325 73.8144 152.833 71.5317 152.833 69.1505V44.2286H154.767V69.1505C154.767 71.9793 155.519 74.6022 157.022 77.0192C158.526 79.4183 160.558 81.325 163.119 82.7394C165.697 84.1359 168.499 84.8341 171.524 84.8341C174.55 84.8341 177.343 84.1359 179.903 82.7394C182.481 81.325 184.522 79.4183 186.026 77.0192C187.53 74.6022 188.282 71.9793 188.282 69.1505ZM192.149 69.1505V44.2286H194.083V69.1505C194.083 73.0177 193.071 76.6074 191.048 79.9196C189.025 83.2138 186.277 85.8278 182.804 87.7614C179.348 89.677 175.588 90.6349 171.524 90.6349C167.46 90.6349 163.692 89.677 160.218 87.7614C156.763 85.8278 154.024 83.2138 152 79.9196C149.977 76.6074 148.966 73.0177 148.966 69.1505V44.2286H150.899V69.1505C150.899 71.7823 151.445 74.3068 152.538 76.7238C153.63 79.1407 155.098 81.2265 156.942 82.9811C158.786 84.7177 160.979 86.1053 163.521 87.1437C166.082 88.1821 168.749 88.7013 171.524 88.7013C174.299 88.7013 176.958 88.1821 179.5 87.1437C182.061 86.1053 184.263 84.7177 186.107 82.9811C187.951 81.2265 189.419 79.1407 190.511 76.7238C191.603 74.3068 192.149 71.7823 192.149 69.1505ZM210.609 66.5724H222.264C224.036 66.5724 225.531 65.9995 226.749 64.8536C227.984 63.7078 228.602 62.0786 228.602 59.9659C228.602 58.4083 227.957 57.0118 226.668 55.7765C225.379 54.5232 223.911 53.8966 222.264 53.8966H205.667V88.7013H203.734V51.963H222.264C224.448 51.963 226.373 52.7776 228.038 54.4069C229.703 56.0182 230.535 57.8712 230.535 59.9659C230.535 62.5441 229.73 64.6119 228.118 66.1696C226.507 67.7272 224.556 68.506 222.264 68.506H210.609V66.5724ZM210.609 70.4396H222.264C225.057 70.4396 227.456 69.4638 229.461 67.5123C231.466 65.5429 232.469 63.0275 232.469 59.9659C232.469 57.3341 231.44 55.0245 229.381 53.0372C227.34 51.032 224.967 50.0294 222.264 50.0294H201.8V88.7013H199.867V48.0958H222.264C224.395 48.0958 226.391 48.6419 228.253 49.734C230.133 50.8261 231.628 52.2942 232.738 54.1383C233.848 55.9645 234.403 57.907 234.403 59.9659C234.403 63.493 233.203 66.4471 230.804 68.8282C228.423 71.1915 225.576 72.3732 222.264 72.3732H210.609V70.4396ZM210.609 74.3068H222.264C224.771 74.3068 227.098 73.6891 229.246 72.4537C231.395 71.2184 233.114 69.4996 234.403 67.2975C235.692 65.0774 236.336 62.6336 236.336 59.9659C236.336 57.549 235.692 55.2841 234.403 53.1715C233.132 51.041 231.413 49.3401 229.246 48.069C227.08 46.7978 224.753 46.1622 222.264 46.1622H197.933V88.7013H195.999V44.2286H222.264C225.075 44.2286 227.716 44.9537 230.186 46.4039C232.657 47.8362 234.618 49.7698 236.068 52.2047C237.536 54.6217 238.27 57.2088 238.27 59.9659C238.27 63.1528 237.581 65.9547 236.202 68.3717C234.841 70.7887 232.988 72.6775 230.643 74.0382L235.638 88.7013H233.597L228.817 74.9513C228.101 75.2378 227.555 75.4347 227.179 75.5421L231.663 88.7013H229.622L225.245 75.9987C225.084 76.0345 224.511 76.0971 223.526 76.1866L227.689 88.7013H225.648L221.539 76.2404H219.793L223.714 88.7013H221.673L217.725 76.2404H210.609V74.3068ZM209.535 88.7013H207.601V55.8302H222.264C223.464 55.8302 224.493 56.242 225.352 57.0656C226.23 57.8712 226.668 58.838 226.668 59.9659C226.668 63.0812 225.2 64.6388 222.264 64.6388H210.609V62.7052H222.264C223.034 62.7052 223.634 62.5083 224.063 62.1144C224.511 61.7026 224.735 60.9865 224.735 59.9659C224.735 59.3393 224.493 58.8201 224.01 58.4083C223.544 57.9786 222.962 57.7638 222.264 57.7638H209.535V88.7013ZM271.392 72.4806L273.326 68.8282V88.7013H271.392V72.4806ZM275.26 65.0685L277.193 61.4161V88.7013H275.26V65.0685ZM279.127 57.7638L281.06 54.0846V88.7013H279.127V57.7638ZM266.156 71.5675L265.054 69.5533L278.375 44.2286H280.55L266.156 71.5675ZM263.927 67.3512L262.799 65.3102L273.97 44.2286H276.173L263.927 67.3512ZM250.982 69.0431L252.916 72.6954V88.7013H250.982V69.0431ZM247.115 61.6847L249.049 65.337V88.7013H247.115V61.6847ZM243.248 54.3263L245.181 58.0055V88.7013H243.248V54.3263ZM258.878 77.0997H256.702L241.314 47.9078V88.7013H239.381V44.2286H241.556L258.878 77.0997ZM263.255 77.0997H261.053L243.758 44.2286H245.96L263.255 77.0997ZM282.994 47.9078L267.606 77.0997H265.404L248.135 44.2286H250.311L266.531 75.0587L282.725 44.2286H284.927V88.7013H282.994V47.9078ZM296.673 88.7013H294.739V44.2286H296.673V88.7013ZM292.806 88.7013H290.872V44.2286H292.806V88.7013ZM288.939 88.7013H287.005V44.2286H288.939V88.7013ZM300.54 79.0333H321.111V80.9669H300.54V82.9005H321.111V84.8341H300.54V86.7677H321.111V88.7013H298.607V44.2286H321.111V46.1622H300.54V48.0958H321.111V50.0294H300.54V51.963H321.111V53.8966H300.54V61.631H311.094V63.5646H300.54V65.4982H311.094V67.4318H300.54V69.3654H311.094V71.299H300.54V79.0333ZM337.476 66.5724H349.131C350.904 66.5724 352.399 65.9995 353.616 64.8536C354.852 63.7078 355.469 62.0786 355.469 59.9659C355.469 58.4083 354.825 57.0118 353.536 55.7765C352.247 54.5232 350.779 53.8966 349.131 53.8966H332.535V88.7013H330.601V51.963H349.131C351.316 51.963 353.24 52.7776 354.905 54.4069C356.57 56.0182 357.403 57.8712 357.403 59.9659C357.403 62.5441 356.597 64.6119 354.986 66.1696C353.375 67.7272 351.423 68.506 349.131 68.506H337.476V66.5724ZM337.476 70.4396H349.131C351.924 70.4396 354.323 69.4638 356.329 67.5123C358.334 65.5429 359.336 63.0275 359.336 59.9659C359.336 57.3341 358.307 55.0245 356.248 53.0372C354.207 51.032 351.835 50.0294 349.131 50.0294H328.668V88.7013H326.734V48.0958H349.131C351.262 48.0958 353.258 48.6419 355.12 49.734C357 50.8261 358.495 52.2942 359.605 54.1383C360.715 55.9645 361.27 57.907 361.27 59.9659C361.27 63.493 360.071 66.4471 357.671 68.8282C355.29 71.1915 352.444 72.3732 349.131 72.3732H337.476V70.4396ZM337.476 74.3068H349.131C351.638 74.3068 353.965 73.6891 356.114 72.4537C358.262 71.2184 359.981 69.4996 361.27 67.2975C362.559 65.0774 363.204 62.6336 363.204 59.9659C363.204 57.549 362.559 55.2841 361.27 53.1715C359.999 51.041 358.28 49.3401 356.114 48.069C353.947 46.7978 351.62 46.1622 349.131 46.1622H324.8V88.7013H322.867V44.2286H349.131C351.942 44.2286 354.583 44.9537 357.054 46.4039C359.524 47.8362 361.485 49.7698 362.935 52.2047C364.403 54.6217 365.137 57.2088 365.137 59.9659C365.137 63.1528 364.448 65.9547 363.069 68.3717C361.709 70.7887 359.856 72.6775 357.51 74.0382L362.505 88.7013H360.464L355.684 74.9513C354.968 75.2378 354.422 75.4347 354.046 75.5421L358.531 88.7013H356.49L352.112 75.9987C351.951 76.0345 351.378 76.0971 350.394 76.1866L354.556 88.7013H352.515L348.406 76.2404H346.661L350.582 88.7013H348.541L344.593 76.2404H337.476V74.3068ZM336.402 88.7013H334.468V55.8302H349.131C350.331 55.8302 351.36 56.242 352.22 57.0656C353.097 57.8712 353.536 58.838 353.536 59.9659C353.536 63.0812 352.068 64.6388 349.131 64.6388H337.476V62.7052H349.131C349.901 62.7052 350.501 62.5083 350.931 62.1144C351.378 61.7026 351.602 60.9865 351.602 59.9659C351.602 59.3393 351.36 58.8201 350.877 58.4083C350.412 57.9786 349.83 57.7638 349.131 57.7638H336.402V88.7013Z" fill="#05D959"/>
<path d="M384.214 61.631H380.965C379.586 61.631 378.593 61.2819 377.984 60.5836C377.375 59.8675 377.071 58.9275 377.071 57.7638C377.071 55.1857 378.995 53.8966 382.845 53.8966C386.461 53.8966 389.183 54.4337 391.009 55.5079L389.451 56.6896C388.198 56.1167 385.996 55.8302 382.845 55.8302C381.305 55.8302 380.267 56.0003 379.729 56.3405C379.21 56.6806 378.951 57.1551 378.951 57.7638C378.951 58.3725 379.094 58.847 379.38 59.1871C379.667 59.5273 380.195 59.6974 380.965 59.6974H384.295C386.712 59.6974 388.887 60.1092 390.821 60.9327C392.772 61.7563 394.375 62.8842 395.628 64.3165C396.881 65.7309 397.839 67.3691 398.501 69.2311C399.164 71.0752 399.495 73.0535 399.495 75.1661C399.495 76.8849 399.253 78.5141 398.77 80.0538C398.287 81.5935 397.553 83.0079 396.568 84.297C395.601 85.5861 394.428 86.705 393.05 87.6539C391.689 88.5849 390.06 89.31 388.162 89.8292C386.282 90.3663 384.241 90.6349 382.039 90.6349C378.584 90.6349 375.343 90.1067 372.317 89.0504C369.31 88.012 366.803 86.5529 364.798 84.673L366.355 83.5182C368.182 85.1653 370.464 86.4454 373.204 87.3585C375.961 88.2537 378.906 88.7013 382.039 88.7013C384.492 88.7013 386.703 88.3522 388.672 87.6539C390.66 86.9378 392.289 85.962 393.56 84.7267C394.849 83.4913 395.834 82.059 396.514 80.4298C397.212 78.8006 397.561 77.046 397.561 75.1661C397.561 72.6775 397.06 70.4306 396.058 68.4254C395.055 66.4023 393.524 64.7641 391.465 63.5109C389.424 62.2576 387.007 61.631 384.214 61.631ZM380.965 63.5646H384.026C387.661 63.5646 390.498 64.6746 392.54 66.8947C394.598 69.1147 395.628 71.8719 395.628 75.1661C395.628 78.5141 394.437 81.2892 392.056 83.4913C389.675 85.6756 386.336 86.7677 382.039 86.7677C379.174 86.7677 376.498 86.3738 374.009 85.5861C371.521 84.7983 369.453 83.6883 367.806 82.256L369.31 81.0475C370.778 82.247 372.622 83.178 374.842 83.8405C377.08 84.5029 379.479 84.8341 382.039 84.8341C385.817 84.8341 388.699 83.93 390.686 82.1217C392.692 80.3134 393.694 77.9949 393.694 75.1661C393.694 72.3732 392.853 70.0636 391.17 68.2374C389.505 66.4113 387.115 65.4982 383.999 65.4982H380.965C378.351 65.4982 376.39 64.782 375.083 63.3497C373.776 61.9174 373.123 60.0555 373.123 57.7638C373.123 55.4721 373.929 53.6101 375.54 52.1779C377.169 50.7456 379.604 50.0294 382.845 50.0294C385.118 50.0294 387.231 50.298 389.183 50.8351C391.134 51.3543 392.745 52.1062 394.017 53.0909L392.486 54.2726C390.248 52.7329 387.034 51.963 382.845 51.963C380.141 51.963 378.163 52.5001 376.91 53.5743C375.674 54.6307 375.057 56.0271 375.057 57.7638C375.057 59.5184 375.513 60.9238 376.426 61.9801C377.357 63.0364 378.87 63.5646 380.965 63.5646ZM380.965 67.4318H383.919C386.533 67.4318 388.493 68.1569 389.8 69.6071C391.107 71.0573 391.761 72.9103 391.761 75.1661C391.761 77.4578 390.946 79.3198 389.317 80.7521C387.706 82.1844 385.28 82.9005 382.039 82.9005C379.765 82.9005 377.644 82.6409 375.674 82.1217C373.723 81.5846 372.111 80.8237 370.84 79.839L372.371 78.6573C374.609 80.1971 377.832 80.9669 382.039 80.9669C384.742 80.9669 386.712 80.4388 387.947 79.3824C389.2 78.3082 389.827 76.9028 389.827 75.1661C389.827 73.4295 389.362 72.033 388.431 70.9767C387.5 69.9025 385.987 69.3654 383.892 69.3654H380.965C377.295 69.3654 374.421 68.2732 372.344 66.089C370.285 63.8868 369.256 61.1118 369.256 57.7638C369.256 54.4158 370.446 51.6497 372.828 49.4655C375.209 47.2633 378.548 46.1622 382.845 46.1622C385.709 46.1622 388.377 46.5561 390.848 47.3439C393.336 48.1316 395.404 49.2417 397.051 50.674L395.547 51.8824C394.079 50.6829 392.235 49.7519 390.015 49.0895C387.795 48.427 385.405 48.0958 382.845 48.0958C379.067 48.0958 376.176 49 374.17 50.8082C372.183 52.6165 371.189 54.935 371.189 57.7638C371.189 60.5747 372.031 62.8932 373.714 64.7194C375.397 66.5276 377.814 67.4318 380.965 67.4318ZM380.965 71.299H383.919C385.297 71.299 386.291 71.657 386.9 72.3732C387.509 73.0893 387.813 74.0203 387.813 75.1661C387.813 77.7443 385.888 79.0333 382.039 79.0333C378.405 79.0333 375.674 78.4962 373.848 77.422L375.406 76.2404C376.659 76.8133 378.87 77.0997 382.039 77.0997C383.579 77.0997 384.608 76.9296 385.127 76.5895C385.665 76.2493 385.933 75.7749 385.933 75.1661C385.933 74.5753 385.781 74.1098 385.477 73.7697C385.19 73.4116 384.653 73.2325 383.865 73.2325H380.965C378.494 73.2325 376.256 72.8297 374.251 72.024C372.264 71.2184 370.625 70.1084 369.336 68.694C368.065 67.2796 367.089 65.6414 366.409 63.7794C365.729 61.9174 365.389 59.9122 365.389 57.7638C365.389 56.045 365.63 54.4158 366.114 52.8761C366.597 51.3364 367.322 49.922 368.289 48.6329C369.274 47.3439 370.446 46.2338 371.807 45.3029C373.186 44.354 374.815 43.6199 376.695 43.1007C378.593 42.5636 380.643 42.295 382.845 42.295C386.3 42.295 389.532 42.8232 392.54 43.8795C395.547 44.9179 398.054 46.3771 400.059 48.257L398.501 49.4117C396.675 47.7646 394.393 46.4934 391.653 45.5983C388.914 44.6852 385.978 44.2286 382.845 44.2286C380.392 44.2286 378.172 44.5867 376.185 45.3029C374.215 46.0011 372.586 46.9679 371.297 48.2032C370.026 49.4386 369.041 50.8709 368.343 52.5001C367.662 54.1294 367.322 55.8839 367.322 57.7638C367.322 60.2882 367.832 62.562 368.853 64.5851C369.873 66.6082 371.431 68.2374 373.526 69.4728C375.621 70.6902 378.1 71.299 380.965 71.299ZM443.306 44.2286H445.24V88.7013H443.306V44.2286ZM400.767 44.2286H402.701V88.7013H400.767V44.2286ZM439.439 44.2286H441.372V88.7013H439.439V44.2286ZM435.572 44.2286H437.505V88.7013H435.572V44.2286ZM431.704 44.2286H433.638V88.7013H431.704V71.2721H414.302V88.7013H412.369V44.2286H414.302V61.6041H431.704V44.2286ZM408.501 44.2286H410.435V88.7013H408.501V44.2286ZM404.634 44.2286H406.568V88.7013H404.634V44.2286ZM431.704 69.3385V67.4049H414.302V69.3385H431.704ZM431.704 65.4713V63.5377H414.302V65.4713H431.704ZM462.974 58.9454C460.897 61.0223 459.859 63.5288 459.859 66.465C459.859 69.4012 460.897 71.9077 462.974 73.9845C465.051 76.0613 467.557 77.0997 470.493 77.0997C473.43 77.0997 475.936 76.0613 478.013 73.9845C480.09 71.9077 481.128 69.4012 481.128 66.465C481.128 63.5288 480.09 61.0223 478.013 58.9454C475.936 56.8686 473.43 55.8302 470.493 55.8302C467.557 55.8302 465.051 56.8686 462.974 58.9454ZM458.919 71.3527C458.256 69.795 457.925 68.1658 457.925 66.465C457.925 64.7641 458.256 63.1438 458.919 61.6041C459.581 60.0465 460.476 58.7037 461.604 57.5758C462.732 56.4479 464.066 55.5527 465.606 54.8903C467.163 54.2278 468.793 53.8966 470.493 53.8966C472.194 53.8966 473.815 54.2278 475.354 54.8903C476.912 55.5527 478.255 56.4479 479.383 57.5758C480.51 58.7037 481.406 60.0465 482.068 61.6041C482.731 63.1438 483.062 64.7641 483.062 66.465C483.062 68.1658 482.731 69.795 482.068 71.3527C481.406 72.8924 480.51 74.2262 479.383 75.3541C478.255 76.4821 476.912 77.3772 475.354 78.0397C473.815 78.7021 472.194 79.0333 470.493 79.0333C468.793 79.0333 467.163 78.7021 465.606 78.0397C464.066 77.3772 462.732 76.4821 461.604 75.3541C460.476 74.2262 459.581 72.8924 458.919 71.3527ZM457.925 59.1871C456.636 61.4072 455.991 63.8331 455.991 66.465C455.991 69.0968 456.636 71.5227 457.925 73.7428C459.232 75.9628 460.996 77.7264 463.216 79.0333C465.436 80.3224 467.862 80.9669 470.493 80.9669C473.125 80.9669 475.551 80.3224 477.771 79.0333C479.991 77.7264 481.746 75.9628 483.035 73.7428C484.342 71.5227 484.995 69.0968 484.995 66.465C484.995 63.8331 484.342 61.4072 483.035 59.1871C481.746 56.9671 479.991 55.2125 477.771 53.9235C475.551 52.6165 473.125 51.963 470.493 51.963C467.862 51.963 465.436 52.6165 463.216 53.9235C460.996 55.2125 459.232 56.9671 457.925 59.1871ZM456.26 74.7096C454.792 72.1852 454.058 69.437 454.058 66.465C454.058 63.493 454.792 60.7448 456.26 58.2203C457.728 55.6959 459.724 53.6997 462.249 52.2316C464.773 50.7635 467.521 50.0294 470.493 50.0294C473.465 50.0294 476.214 50.7635 478.738 52.2316C481.262 53.6997 483.259 55.6959 484.727 58.2203C486.195 60.7448 486.929 63.493 486.929 66.465C486.929 69.437 486.195 72.1852 484.727 74.7096C483.259 77.234 481.262 79.2303 478.738 80.6984C476.214 82.1665 473.465 82.9005 470.493 82.9005C467.521 82.9005 464.773 82.1665 462.249 80.6984C459.724 79.2303 457.728 77.234 456.26 74.7096ZM453.574 59.3214C452.608 61.5952 452.124 63.9764 452.124 66.465C452.124 68.9536 452.608 71.3348 453.574 73.6085C454.541 75.8823 455.839 77.8427 457.468 79.4899C459.116 81.1191 461.076 82.4171 463.35 83.3839C465.624 84.3507 468.005 84.8341 470.493 84.8341C472.982 84.8341 475.363 84.3507 477.637 83.3839C479.911 82.4171 481.862 81.1191 483.491 79.4899C485.139 77.8427 486.446 75.8823 487.412 73.6085C488.379 71.3348 488.863 68.9536 488.863 66.465C488.863 63.9764 488.379 61.5952 487.412 59.3214C486.446 57.0476 485.139 55.0962 483.491 53.4669C481.862 51.8198 479.911 50.5128 477.637 49.546C475.363 48.5792 472.982 48.0958 470.493 48.0958C468.005 48.0958 465.624 48.5792 463.35 49.546C461.076 50.5128 459.116 51.8198 457.468 53.4669C455.839 55.0962 454.541 57.0476 453.574 59.3214ZM452.903 76.6432C451.095 73.528 450.191 70.1352 450.191 66.465C450.191 62.7947 451.095 59.402 452.903 56.2867C454.729 53.1715 457.2 50.7098 460.315 48.9015C463.43 47.0753 466.823 46.1622 470.493 46.1622C474.164 46.1622 477.556 47.0753 480.672 48.9015C483.787 50.7098 486.249 53.1715 488.057 56.2867C489.883 59.402 490.796 62.7947 490.796 66.465C490.796 70.1352 489.883 73.528 488.057 76.6432C486.249 79.7584 483.787 82.2291 480.672 84.0553C477.556 85.8636 474.164 86.7677 470.493 86.7677C466.823 86.7677 463.43 85.8636 460.315 84.0553C457.2 82.2291 454.729 79.7584 452.903 76.6432ZM450.003 57.8444C448.839 60.5836 448.257 63.4572 448.257 66.465C448.257 69.4728 448.839 72.3553 450.003 75.1124C451.184 77.8517 452.769 80.215 454.756 82.2023C456.743 84.1896 459.107 85.774 461.846 86.9557C464.603 88.1194 467.486 88.7013 470.493 88.7013C473.501 88.7013 476.375 88.1194 479.114 86.9557C481.871 85.774 484.243 84.1896 486.231 82.2023C488.218 80.215 489.794 77.8517 490.957 75.1124C492.139 72.3553 492.73 69.4728 492.73 66.465C492.73 63.4572 492.139 60.5836 490.957 57.8444C489.794 55.0872 488.218 52.715 486.231 50.7277C484.243 48.7404 481.871 47.1648 479.114 46.0011C476.375 44.8195 473.501 44.2286 470.493 44.2286C467.486 44.2286 464.603 44.8195 461.846 46.0011C459.107 47.1648 456.743 48.7404 454.756 50.7277C452.769 52.715 451.184 55.0872 450.003 57.8444ZM448.23 75.8644C446.959 72.8745 446.323 69.7413 446.323 66.465C446.323 63.1886 446.959 60.0644 448.23 57.0924C449.519 54.1025 451.238 51.5333 453.386 49.3849C455.553 47.2185 458.122 45.4998 461.094 44.2286C464.084 42.9396 467.217 42.295 470.493 42.295C473.77 42.295 476.894 42.9396 479.866 44.2286C482.856 45.4998 485.425 47.2185 487.573 49.3849C489.74 51.5333 491.459 54.1025 492.73 57.0924C494.019 60.0644 494.663 63.1886 494.663 66.465C494.663 69.7413 494.019 72.8745 492.73 75.8644C491.459 78.8364 489.74 81.4056 487.573 83.5719C485.425 85.7203 482.856 87.4301 479.866 88.7013C476.894 89.9904 473.77 90.6349 470.493 90.6349C467.217 90.6349 464.084 89.9904 461.094 88.7013C458.122 87.4301 455.553 85.7203 453.386 83.5719C451.238 81.4056 449.519 78.8364 448.23 75.8644ZM510.679 67.6466H521.904C523.749 67.6466 525.306 67.0289 526.577 65.7936C527.866 64.5403 528.511 62.7768 528.511 60.5031C528.511 58.8022 527.839 57.2804 526.497 55.9376C525.154 54.5769 523.623 53.8966 521.904 53.8966H505.308V88.7013H503.374V51.963H521.904C524.16 51.963 526.148 52.8313 527.866 54.568C529.585 56.3046 530.444 58.283 530.444 60.5031C530.444 63.2423 529.612 65.4445 527.947 67.1095C526.282 68.7566 524.268 69.5802 521.904 69.5802H510.679V67.6466ZM510.679 71.5138H521.904C523.766 71.5138 525.485 71.0662 527.061 70.171C528.654 69.2579 529.934 67.951 530.901 66.2501C531.886 64.5493 532.378 62.6336 532.378 60.5031C532.378 57.7459 531.322 55.311 529.209 53.1984C527.114 51.0857 524.679 50.0294 521.904 50.0294H501.441V88.7013H499.507V48.0958H521.904C524.071 48.0958 526.112 48.6687 528.027 49.8146C529.943 50.9604 531.465 52.4912 532.593 54.4069C533.739 56.3226 534.312 58.3546 534.312 60.5031C534.312 62.9379 533.739 65.158 532.593 67.1632C531.447 69.1505 529.925 70.6992 528.027 71.8092C526.148 72.9013 524.107 73.4474 521.904 73.4474H510.679V71.5138ZM510.679 75.381H521.904C523.82 75.381 525.655 75.005 527.41 74.2531C529.164 73.4832 530.686 72.4537 531.975 71.1647C533.282 69.8577 534.321 68.2822 535.09 66.4381C535.86 64.5761 536.245 62.5978 536.245 60.5031C536.245 57.9965 535.592 55.6422 534.285 53.4401C532.978 51.22 531.214 49.4565 528.994 48.1495C526.792 46.8247 524.429 46.1622 521.904 46.1622H497.573V88.7013H495.64V44.2286H521.904C524.769 44.2286 527.455 44.9806 529.961 46.4845C532.468 47.9705 534.464 49.9668 535.95 52.4733C537.436 54.9798 538.179 57.6564 538.179 60.5031C538.179 63.0454 537.74 65.3907 536.863 67.5392C535.986 69.6697 534.804 71.4422 533.318 72.8566C531.832 74.271 530.104 75.372 528.135 76.1598C526.166 76.9296 524.089 77.3146 521.904 77.3146H510.679V75.381ZM509.175 88.7013H507.241V55.8302H521.904C523.176 55.8302 524.268 56.2957 525.181 57.2267C526.112 58.1577 526.577 59.2498 526.577 60.5031C526.577 63.9764 525.02 65.713 521.904 65.713H510.679V63.7794H521.904C522.764 63.7794 523.435 63.5377 523.919 63.0543C524.402 62.5709 524.644 61.7205 524.644 60.5031C524.644 59.7153 524.375 59.0618 523.838 58.5426C523.319 58.0234 522.674 57.7638 521.904 57.7638H509.175V88.7013Z" fill="#02451D"/>
<path d="M45.009 19.1437C47.6045 19.1437 50.0938 20.1646 51.9291 21.9818C53.7644 23.799 54.7955 26.2637 54.7955 28.8336V38.5235H35.2225V28.8336C35.2225 26.2637 36.2536 23.799 38.0889 21.9818C39.9242 20.1646 42.4135 19.1437 45.009 19.1437ZM59.6887 38.5235V28.8336C59.6887 24.9787 58.1421 21.2817 55.3891 18.5559C52.6362 15.8301 48.9023 14.2987 45.009 14.2987C41.1157 14.2987 37.3819 15.8301 34.6289 18.5559C31.8759 21.2817 30.3293 24.9787 30.3293 28.8336V38.5235H22.3044C20.5471 38.5239 18.8483 39.1485 17.5166 40.2839C16.185 41.4192 15.309 42.9899 15.0477 44.7105L10.0224 77.913C9.76197 79.6358 9.87996 81.394 10.3683 83.0675C10.8566 84.741 11.7037 86.2906 12.8518 87.6104C14 88.9303 15.4222 89.9894 17.0214 90.7156C18.6206 91.4417 20.3591 91.8178 22.1184 91.8181H67.8947C69.6544 91.8185 71.3935 91.4429 72.9933 90.7171C74.5931 89.9912 76.0159 88.9322 77.1646 87.6123C78.3133 86.2923 79.1608 84.7425 79.6494 83.0686C80.138 81.3948 80.2561 79.6362 79.9957 77.913L74.9654 44.7105C74.7043 42.9907 73.829 41.4207 72.4983 40.2854C71.1677 39.1502 69.4701 38.5251 67.7136 38.5235H59.6887ZM54.7955 43.3685V50.6359C54.7955 51.2784 55.0533 51.8946 55.5121 52.3489C55.9709 52.8032 56.5932 53.0584 57.2421 53.0584C57.891 53.0584 58.5133 52.8032 58.9721 52.3489C59.431 51.8946 59.6887 51.2784 59.6887 50.6359V43.3685H67.7087C68.2945 43.369 68.8605 43.5777 69.3041 43.9564C69.7477 44.3351 70.0393 44.8589 70.126 45.4324L75.1562 78.6253C75.3132 79.6592 75.2431 80.7145 74.9505 81.7192C74.6579 82.7238 74.1499 83.6541 73.461 84.4466C72.7721 85.239 71.9186 85.875 70.9589 86.311C69.9991 86.7471 68.9556 86.9729 67.8996 86.9731H22.1184C21.0624 86.9729 20.0189 86.7471 19.0592 86.311C18.0994 85.875 17.2459 85.239 16.557 84.4466C15.8682 83.6541 15.3601 82.7238 15.0675 81.7192C14.775 80.7145 14.7048 79.6592 14.8618 78.6253L19.892 45.4324C19.9786 44.8597 20.2695 44.3366 20.712 43.958C21.1546 43.5793 21.7195 43.3702 22.3044 43.3685H30.3293V50.6359C30.3293 51.2784 30.5871 51.8946 31.0459 52.3489C31.5047 52.8032 32.127 53.0584 32.7759 53.0584C33.4248 53.0584 34.0471 52.8032 34.5059 52.3489C34.9648 51.8946 35.2225 51.2784 35.2225 50.6359V43.3685H54.7955Z" fill="#05D959"/>
<path d="M63.4366 69.3474C57.3009 72.8171 51.1583 74.552 45.009 74.552C38.8597 74.552 32.7172 72.8171 26.5814 69.3474L26.5814 64.5332C32.7172 68.0029 38.8597 69.7378 45.009 69.7378C51.1583 69.7378 57.3009 68.0029 63.4366 64.5332V69.3474Z" fill="#05D959"/>
</svg>
